#format: frame checksums
#version: 2
#hash: MD5
#software: Lavf62.3.100
#tb 0: 1/4
#media_type 0: video
#codec_id 0: rawvideo
#dimensions 0: 180x320
#sar 0: 1/1
#stream#, dts,        pts, duration,     size, hash
0,          0,          0,        1,    86400, 1b0bf0f47cc549d35faed9d6f1b43f4d
0,          1,          1,        1,    86400, c6563a460895638243beb65fb4f1d0a8
0,          2,          2,        1,    86400, 7de6d78a8f7b965f701d215f192ac766
0,          3,          3,        1,    86400, 43be1f6b17228c45a728dc1d08e61f7d
0,          4,          4,        1,    86400, f5a837cecf76a5a0a5afee71438fdbd7
0,          5,          5,        1,    86400, 850ae72015c2a7441293f35240fda7c3
0,          6,          6,        1,    86400, a02fa3e2e5bc572f6b1dad1785850d5b
0,          7,          7,        1,    86400, 3f27150defbdebdd0c897d1e7c761632
